# xmcd CD database file
#
# Track frame offsets:
#	150
#	28885
#	57007
#	83190
#	105475
#	131100
#	170230
#	196642
#	230952
#	260755
#
# Disc length: 3802 seconds
#
# Revision: 0
# Processed by: cddbd v1.5PL3 Copyright (c) Steve Scherf et al.
# Submitted via: CDex 1.51
#
DISCID=8e0ed80a
DTITLE=Reiner Witzel Group featuring Lew Soloff and Lonnie Plaxico - Infinite Voyage
DYEAR=1993
DGENRE=Jazz
TTITLE0=Secret Garden
TTITLE1=Departure
TTITLE2=Chimneys
TTITLE3=Choral
TTITLE4=Brooklyn Bounce
TTITLE5=Volga
TTITLE6=Last Summer
TTITLE7=Eastside
TTITLE8=Inside The Cave
TTITLE9=Just Dreams
EXTD=YEAR: 1993
EXTT0=
EXTT1=
EXTT2=
EXTT3=
EXTT4=
EXTT5=
EXTT6=
EXTT7=
EXTT8=
EXTT9=
PLAYORDER=
